<svg width="34" height="29" viewBox="0 0 34 29" fill="none" xmlns="http://www.w3.org/2000/svg">
<path d="M27.6875 19.6875C27.4125 19.4125 27.2685 19.0625 27.2555 18.6375C27.2425 18.2125 27.374 17.825 27.65 17.475C28.425 16.525 29.031 15.456 29.468 14.268C29.905 13.08 30.124 11.824 30.125 10.5C30.125 9.19995 29.906 7.96245 29.468 6.78745C29.03 5.61245 28.424 4.54995 27.65 3.59995C27.375 3.24995 27.2375 2.86245 27.2375 2.43745C27.2375 2.01245 27.3875 1.64995 27.6875 1.34995C28.0375 0.999951 28.4565 0.824951 28.9445 0.824951C29.4325 0.824951 29.826 0.999951 30.125 1.34995C31.175 2.62495 32 4.03745 32.6 5.58745C33.2 7.13745 33.5 8.77495 33.5 10.5C33.5 12.225 33.2 13.8625 32.6 15.4125C32 16.9625 31.175 18.375 30.125 19.65C29.825 20 29.4315 20.1815 28.9445 20.1945C28.4575 20.2075 28.0385 20.0385 27.6875 19.6875ZM22.85 14.85C22.575 14.575 22.4185 14.2185 22.3805 13.7805C22.3425 13.3425 22.449 12.9115 22.7 12.4875C22.875 12.1875 23.0065 11.869 23.0945 11.5319C23.1825 11.195 23.226 10.851 23.225 10.5C23.225 10.15 23.1815 9.80595 23.0945 9.46795C23.0075 9.12995 22.876 8.81145 22.7 8.51245C22.45 8.08745 22.3435 7.65645 22.3805 7.21945C22.4175 6.78245 22.574 6.42595 22.85 6.14995C23.2 5.79995 23.625 5.63145 24.125 5.64445C24.625 5.65745 25.0125 5.85095 25.2875 6.22495C25.7125 6.84995 26.05 7.51895 26.3 8.23195C26.55 8.94495 26.675 9.70095 26.675 10.5C26.675 11.3 26.55 12.0564 26.3 12.7695C26.05 13.4825 25.7125 14.151 25.2875 14.775C25.0125 15.15 24.625 15.344 24.125 15.357C23.625 15.37 23.2 15.201 22.85 14.85ZM12.5 16.5C10.85 16.5 9.43751 15.9125 8.26251 14.7375C7.08751 13.5625 6.50001 12.15 6.50001 10.5C6.50001 8.84995 7.08751 7.43745 8.26251 6.26245C9.43751 5.08745 10.85 4.49995 12.5 4.49995C14.15 4.49995 15.5625 5.08745 16.7375 6.26245C17.9125 7.43745 18.5 8.84995 18.5 10.5C18.5 12.15 17.9125 13.5625 16.7375 14.7375C15.5625 15.9125 14.15 16.5 12.5 16.5ZM2.00001 28.5C1.57501 28.5 1.21851 28.356 0.930505 28.068C0.642505 27.78 0.499005 27.424 0.500005 27V24.3C0.500005 23.475 0.712505 22.7 1.13751 21.975C1.56251 21.25 2.15001 20.7 2.90001 20.325C4.17501 19.675 5.6125 19.125 7.21251 18.6749C8.81251 18.225 10.575 18 12.5 18C14.425 18 16.1875 18.225 17.7875 18.6749C19.3875 19.125 20.825 19.675 22.1 20.325C22.85 20.7 23.4375 21.25 23.8625 21.975C24.2875 22.7 24.5 23.475 24.5 24.3V27C24.5 27.425 24.356 27.7815 24.068 28.0695C23.78 28.3575 23.424 28.501 23 28.5H2.00001ZM3.50001 25.5H21.5V24.3C21.5 24.025 21.431 23.775 21.293 23.55C21.155 23.325 20.974 23.15 20.75 23.025C19.85 22.575 18.6935 22.125 17.2805 21.675C15.8675 21.225 14.274 21 12.5 21C10.725 21 9.13101 21.225 7.71801 21.675C6.30501 22.125 5.14901 22.575 4.25001 23.025C4.02501 23.15 3.84351 23.325 3.70551 23.55C3.56751 23.775 3.49901 24.025 3.50001 24.3V25.5ZM12.5 13.5C13.325 13.5 14.0315 13.206 14.6195 12.618C15.2075 12.03 15.501 11.324 15.5 10.5C15.5 9.67495 15.206 8.96845 14.618 8.38045C14.03 7.79245 13.324 7.49895 12.5 7.49995C11.675 7.49995 10.9685 7.79395 10.3805 8.38195C9.79251 8.96995 9.49901 9.67595 9.50001 10.5C9.50001 11.325 9.79401 12.0315 10.382 12.6195C10.97 13.2075 11.676 13.501 12.5 13.5Z" fill="#005274"/>
</svg>
