<svg width="36" height="36" viewBox="0 0 36 36" fill="none" xmlns="http://www.w3.org/2000/svg">
<path d="M4 6C3.73478 6 3.48043 6.10536 3.29289 6.29289C3.10536 6.48043 3 6.73478 3 7V29C3 29.2652 3.10536 29.5196 3.29289 29.7071C3.48043 29.8946 3.73478 30 4 30C4.26522 30 4.51957 29.8946 4.70711 29.7071C4.89464 29.5196 5 29.2652 5 29V7C5 6.73478 4.89464 6.48043 4.70711 6.29289C4.51957 6.10536 4.26522 6 4 6Z" fill="#005274" stroke="#005274" stroke-width="0.5"/>
<path d="M8 6C7.73478 6 7.48043 6.10536 7.29289 6.29289C7.10536 6.48043 7 6.73478 7 7V25C7 25.2652 7.10536 25.5196 7.29289 25.7071C7.48043 25.8946 7.73478 26 8 26C8.26522 26 8.51957 25.8946 8.70711 25.7071C8.89464 25.5196 9 25.2652 9 25V7C9 6.73478 8.89464 6.48043 8.70711 6.29289C8.51957 6.10536 8.26522 6 8 6Z" fill="#005274" stroke="#005274" stroke-width="0.5"/>
<path d="M12 6C11.7348 6 11.4804 6.10536 11.2929 6.29289C11.1054 6.48043 11 6.73478 11 7V25C11 25.2652 11.1054 25.5196 11.2929 25.7071C11.4804 25.8946 11.7348 26 12 26C12.2652 26 12.5196 25.8946 12.7071 25.7071C12.8946 25.5196 13 25.2652 13 25V7C13 6.73478 12.8946 6.48043 12.7071 6.29289C12.5196 6.10536 12.2652 6 12 6Z" fill="#005274" stroke="#005274" stroke-width="0.5"/>
<path d="M16 6C15.7348 6 15.4804 6.10536 15.2929 6.29289C15.1054 6.48043 15 6.73478 15 7V25C15 25.2652 15.1054 25.5196 15.2929 25.7071C15.4804 25.8946 15.7348 26 16 26C16.2652 26 16.5196 25.8946 16.7071 25.7071C16.8946 25.5196 17 25.2652 17 25V7C17 6.73478 16.8946 6.48043 16.7071 6.29289C16.5196 6.10536 16.2652 6 16 6Z" fill="#005274" stroke="#005274" stroke-width="0.5"/>
<path d="M20 6C19.7348 6 19.4804 6.10536 19.2929 6.29289C19.1054 6.48043 19 6.73478 19 7V25C19 25.2652 19.1054 25.5196 19.2929 25.7071C19.4804 25.8946 19.7348 26 20 26C20.2652 26 20.5196 25.8946 20.7071 25.7071C20.8946 25.5196 21 25.2652 21 25V7C21 6.73478 20.8946 6.48043 20.7071 6.29289C20.5196 6.10536 20.2652 6 20 6Z" fill="#005274" stroke="#005274" stroke-width="0.5"/>
<path d="M24 6C23.7348 6 23.4804 6.10536 23.2929 6.29289C23.1054 6.48043 23 6.73478 23 7V25C23 25.2652 23.1054 25.5196 23.2929 25.7071C23.4804 25.8946 23.7348 26 24 26C24.2652 26 24.5196 25.8946 24.7071 25.7071C24.8946 25.5196 25 25.2652 25 25V7C25 6.73478 24.8946 6.48043 24.7071 6.29289C24.5196 6.10536 24.2652 6 24 6Z" fill="#005274" stroke="#005274" stroke-width="0.5"/>
<path d="M28 6C27.7348 6 27.4804 6.10536 27.2929 6.29289C27.1054 6.48043 27 6.73478 27 7V25C27 25.2652 27.1054 25.5196 27.2929 25.7071C27.4804 25.8946 27.7348 26 28 26C28.2652 26 28.5196 25.8946 28.7071 25.7071C28.8946 25.5196 29 25.2652 29 25V7C29 6.73478 28.8946 6.48043 28.7071 6.29289C28.5196 6.10536 28.2652 6 28 6Z" fill="#005274" stroke="#005274" stroke-width="0.5"/>
<path d="M32 6C31.7348 6 31.4804 6.10536 31.2929 6.29289C31.1054 6.48043 31 6.73478 31 7V29C31 29.2652 31.1054 29.5196 31.2929 29.7071C31.4804 29.8946 31.7348 30 32 30C32.2652 30 32.5196 29.8946 32.7071 29.7071C32.8946 29.5196 33 29.2652 33 29V7C33 6.73478 32.8946 6.48043 32.7071 6.29289C32.5196 6.10536 32.2652 6 32 6Z" fill="#005274" stroke="#005274" stroke-width="0.5"/>
</svg>
