<svg width="33" height="30" viewBox="0 0 33 30" fill="none" xmlns="http://www.w3.org/2000/svg">
<path d="M23.25 19.23L26.91 21.345L25.785 23.295L21 20.535V15H23.25V19.23ZM33 19.5C33 25.305 28.305 30 22.5 30C16.695 30 12 25.305 12 19.5C12 18.99 12.045 18.495 12.12 18H2C0.895432 18 0 17.1046 0 16V2C0 0.89543 0.895431 0 2 0H25C26.1046 0 27 0.895431 27 2V10.02C30.54 11.715 33 15.315 33 19.5ZM13.02 15C13.29 14.46 13.575 13.95 13.92 13.455C13.785 13.5 13.65 13.5 13.5 13.5C11.01 13.5 9 11.49 9 9C9 6.51 11.01 4.5 13.5 4.5C15.99 4.5 18 6.51 18 9C18 9.375 17.94 9.75 17.85 10.095C19.26 9.405 20.835 9 22.5 9C23.01 9 23.505 9.045 24 9.12V6C23.2043 6 22.4413 5.68393 21.8787 5.12132C21.3161 4.55871 21 3.79565 21 3H6C6 4.665 4.665 6 3 6V12C3.79565 12 4.55871 12.3161 5.12132 12.8787C5.68393 13.4413 6 14.2044 6 15H13.02ZM30 19.5C30 15.36 26.64 12 22.5 12C18.36 12 15 15.36 15 19.5C15 23.64 18.36 27 22.5 27C26.64 27 30 23.64 30 19.5Z" fill="#005274"/>
</svg>
