<svg width="28" height="28" viewBox="0 0 28 28" fill="none" xmlns="http://www.w3.org/2000/svg">
<path d="M15.5 13.4L19.25 17.15C19.525 17.425 19.6625 17.775 19.6625 18.2C19.6625 18.625 19.525 18.975 19.25 19.25C18.975 19.525 18.625 19.6625 18.2 19.6625C17.775 19.6625 17.425 19.525 17.15 19.25L12.95 15.05C12.8 14.9 12.6875 14.7315 12.6125 14.5445C12.5375 14.3575 12.5 14.1635 12.5 13.9625V8C12.5 7.575 12.644 7.2185 12.932 6.9305C13.22 6.6425 13.576 6.499 14 6.5C14.425 6.5 14.7815 6.644 15.0695 6.932C15.3575 7.22 15.501 7.576 15.5 8V13.4ZM14 27.5C10.975 27.5 8.2625 26.606 5.8625 24.818C3.4625 23.03 1.85 20.699 1.025 17.825C0.899997 17.375 0.943998 16.95 1.157 16.55C1.37 16.15 1.701 15.9 2.15 15.8C2.575 15.7 2.9565 15.794 3.2945 16.082C3.6325 16.37 3.8635 16.726 3.9875 17.15C4.6375 19.35 5.894 21.125 7.757 22.475C9.62 23.825 11.701 24.5 14 24.5C16.925 24.5 19.4065 23.481 21.4445 21.443C23.4825 19.405 24.501 16.924 24.5 14C24.5 11.075 23.481 8.5935 21.443 6.5555C19.405 4.5175 16.924 3.499 14 3.5C12.275 3.5 10.6625 3.9 9.1625 4.7C7.6625 5.5 6.4 6.6 5.375 8H8C8.425 8 8.7815 8.144 9.0695 8.432C9.3575 8.72 9.501 9.076 9.5 9.5C9.5 9.925 9.356 10.2815 9.068 10.5695C8.78 10.8575 8.424 11.001 8 11H2C1.575 11 1.2185 10.856 0.930497 10.568C0.642497 10.28 0.498998 9.924 0.499998 9.5V3.5C0.499998 3.075 0.643998 2.7185 0.931998 2.4305C1.22 2.1425 1.576 1.999 2 2C2.425 2 2.7815 2.144 3.0695 2.432C3.3575 2.72 3.501 3.076 3.5 3.5V5.525C4.775 3.925 6.3315 2.6875 8.1695 1.8125C10.0075 0.9375 11.951 0.5 14 0.5C15.875 0.5 17.6315 0.8565 19.2695 1.5695C20.9075 2.2825 22.3325 3.2445 23.5445 4.4555C24.7565 5.6685 25.719 7.0935 26.432 8.7305C27.145 10.3675 27.501 12.124 27.5 14C27.5 15.875 27.1435 17.6315 26.4305 19.2695C25.7175 20.9075 24.7555 22.3325 23.5445 23.5445C22.3315 24.7565 20.9065 25.719 19.2695 26.432C17.6325 27.145 15.876 27.501 14 27.5Z" fill="#005274"/>
</svg>
