<svg width="28" height="32" viewBox="0 0 28 32" fill="none" xmlns="http://www.w3.org/2000/svg">
<path d="M3.8 0.599976C2.84522 0.599976 1.92954 0.97926 1.25441 1.65439C0.579281 2.32952 0.199997 3.2452 0.199997 4.19998V25.8C0.199997 26.7548 0.579281 27.6704 1.25441 28.3456C1.92954 29.0207 2.84522 29.4 3.8 29.4H11.4626C11.0041 28.8447 10.6076 28.2412 10.28 27.6H3.8C3.32261 27.6 2.86477 27.4103 2.5272 27.0728C2.18964 26.7352 2 26.2774 2 25.8V4.19998C2 3.72259 2.18964 3.26475 2.5272 2.92718C2.86477 2.58962 3.32261 2.39998 3.8 2.39998H11V8.69998C11 9.41606 11.2845 10.1028 11.7908 10.6092C12.2972 11.1155 12.9839 11.4 13.7 11.4H20V13.2396C20.609 13.2947 21.2116 13.4062 21.8 13.5726V10.3452C21.7994 9.62933 21.5145 8.94304 21.008 8.43718L13.9628 1.39018C13.4566 0.884343 12.7704 0.600128 12.0548 0.599976H3.8ZM19.6274 9.59998H13.7C13.4613 9.59998 13.2324 9.50515 13.0636 9.33637C12.8948 9.16759 12.8 8.93867 12.8 8.69998V2.77258L19.6274 9.59998ZM9.2 23.1C9.2 22.7976 9.2144 22.497 9.2396 22.2H8.3C8.0613 22.2 7.83238 22.2948 7.6636 22.4636C7.49482 22.6324 7.4 22.8613 7.4 23.1C7.4 23.3387 7.49482 23.5676 7.6636 23.7364C7.83238 23.9052 8.0613 24 8.3 24H9.2396C9.21292 23.7007 9.19971 23.4004 9.2 23.1ZM9.5726 20.4C9.7508 19.7718 9.9866 19.1706 10.28 18.6H8.3C8.0613 18.6 7.83238 18.6948 7.6636 18.8636C7.49482 19.0324 7.4 19.2613 7.4 19.5C7.4 19.7387 7.49482 19.9676 7.6636 20.1364C7.83238 20.3052 8.0613 20.4 8.3 20.4H9.5726ZM11.4626 16.8C12.026 16.116 12.6812 15.5112 13.4066 15H8.3C8.0613 15 7.83238 15.0948 7.6636 15.2636C7.49482 15.4324 7.4 15.6613 7.4 15.9C7.4 16.1387 7.49482 16.3676 7.6636 16.5364C7.83238 16.7052 8.0613 16.8 8.3 16.8H11.4626ZM4.7 15C4.4613 15 4.23238 15.0948 4.0636 15.2636C3.89482 15.4324 3.8 15.6613 3.8 15.9C3.8 16.1387 3.89482 16.3676 4.0636 16.5364C4.23238 16.7052 4.4613 16.8 4.7 16.8C4.93869 16.8 5.16761 16.7052 5.33639 16.5364C5.50518 16.3676 5.6 16.1387 5.6 15.9C5.6 15.6613 5.50518 15.4324 5.33639 15.2636C5.16761 15.0948 4.93869 15 4.7 15ZM3.8 19.5C3.8 19.2613 3.89482 19.0324 4.0636 18.8636C4.23238 18.6948 4.4613 18.6 4.7 18.6C4.93869 18.6 5.16761 18.6948 5.33639 18.8636C5.50518 19.0324 5.6 19.2613 5.6 19.5C5.6 19.7387 5.50518 19.9676 5.33639 20.1364C5.16761 20.3052 4.93869 20.4 4.7 20.4C4.4613 20.4 4.23238 20.3052 4.0636 20.1364C3.89482 19.9676 3.8 19.7387 3.8 19.5ZM3.8 23.1C3.8 22.8613 3.89482 22.6324 4.0636 22.4636C4.23238 22.2948 4.4613 22.2 4.7 22.2C4.93869 22.2 5.16761 22.2948 5.33639 22.4636C5.50518 22.6324 5.6 22.8613 5.6 23.1C5.6 23.3387 5.50518 23.5676 5.33639 23.7364C5.16761 23.9052 4.93869 24 4.7 24C4.4613 24 4.23238 23.9052 4.0636 23.7364C3.89482 23.5676 3.8 23.3387 3.8 23.1ZM27.2 23.1C27.2 25.2482 26.3466 27.3085 24.8276 28.8275C23.3085 30.3466 21.2482 31.2 19.1 31.2C16.9517 31.2 14.8915 30.3466 13.3724 28.8275C11.8534 27.3085 11 25.2482 11 23.1C11 20.9517 11.8534 18.8915 13.3724 17.3724C14.8915 15.8534 16.9517 15 19.1 15C21.2482 15 23.3085 15.8534 24.8276 17.3724C26.3466 18.8915 27.2 20.9517 27.2 23.1ZM20 17.7C20 17.4613 19.9052 17.2324 19.7364 17.0636C19.5676 16.8948 19.3387 16.8 19.1 16.8C18.8613 16.8 18.6324 16.8948 18.4636 17.0636C18.2948 17.2324 18.2 17.4613 18.2 17.7V23.1C18.2 23.3387 18.2948 23.5676 18.4636 23.7364C18.6324 23.9052 18.8613 24 19.1 24H22.7C22.9387 24 23.1676 23.9052 23.3364 23.7364C23.5052 23.5676 23.6 23.3387 23.6 23.1C23.6 22.8613 23.5052 22.6324 23.3364 22.4636C23.1676 22.2948 22.9387 22.2 22.7 22.2H20V17.7Z" fill="#005274"/>
</svg>
