<svg width="28" height="32" viewBox="0 0 28 32" fill="none" xmlns="http://www.w3.org/2000/svg">
<path d="M6 15H18V18H6V15ZM9 27H3V3H13.5V10.5H21V15.15L24 12.15V9L15 0H3C2.20435 0 1.44129 0.31607 0.87868 0.87868C0.31607 1.44129 0 2.20435 0 3V27C0 27.7956 0.31607 28.5587 0.87868 29.1213C1.44129 29.6839 2.20435 30 3 30H9V27ZM6 24H12.15L13.5 22.65V21H6V24ZM24.3 16.5C24.45 16.5 24.75 16.65 24.9 16.8L26.85 18.75C27.15 19.05 27.15 19.65 26.85 19.95L25.35 21.45L22.2 18.3L23.7 16.8C23.85 16.65 24 16.5 24.3 16.5ZM24.3 22.35L15.15 31.5H12V28.35L21.15 19.2L24.3 22.35Z" fill="#005274"/>
</svg>
