<svg width="30" height="29" viewBox="0 0 30 29" fill="none" xmlns="http://www.w3.org/2000/svg">
<path d="M17.25 22.5H4.5C3.70435 22.5 2.94129 22.1839 2.37868 21.6213C1.81607 21.0587 1.5 20.2956 1.5 19.5V4.5M1.5 4.5C1.5 3.70435 1.81607 2.94129 2.37868 2.37868C2.94129 1.81607 3.70435 1.5 4.5 1.5H25.5C26.2956 1.5 27.0587 1.81607 27.6213 2.37868C28.1839 2.94129 28.5 3.70435 28.5 4.5M1.5 4.5L15 13.5L28.5 4.5M28.5 4.5V9.75M28.5 16.5H24.75C24.1533 16.5 23.581 16.7371 23.159 17.159C22.7371 17.581 22.5 18.1533 22.5 18.75C22.5 19.3467 22.7371 19.919 23.159 20.341C23.581 20.7629 24.1533 21 24.75 21H26.25C26.8467 21 27.419 21.2371 27.841 21.659C28.2629 22.081 28.5 22.6533 28.5 23.25C28.5 23.8467 28.2629 24.419 27.841 24.841C27.419 25.2629 26.8467 25.5 26.25 25.5H22.5M25.5 25.5V27M25.5 15V16.5" stroke="#005274" stroke-width="2.5" stroke-linecap="round" stroke-linejoin="round"/>
</svg>
