<svg width="32" height="29" viewBox="0 0 32 29" fill="none" xmlns="http://www.w3.org/2000/svg">
<path d="M12.75 4.5C11.5565 4.5 10.4119 4.97411 9.56802 5.81802C8.7241 6.66193 8.25 7.80653 8.25 9C8.25 10.1935 8.7241 11.3381 9.56802 12.182C10.4119 13.0259 11.5565 13.5 12.75 13.5C13.9435 13.5 15.0881 13.0259 15.932 12.182C16.7759 11.3381 17.25 10.1935 17.25 9C17.25 7.80653 16.7759 6.66193 15.932 5.81802C15.0881 4.97411 13.9435 4.5 12.75 4.5ZM10.5 9C10.5 8.40326 10.7371 7.83097 11.159 7.40901C11.581 6.98705 12.1533 6.75 12.75 6.75C13.3467 6.75 13.919 6.98705 14.341 7.40901C14.7629 7.83097 15 8.40326 15 9C15 9.59674 14.7629 10.169 14.341 10.591C13.919 11.0129 13.3467 11.25 12.75 11.25C12.1533 11.25 11.581 11.0129 11.159 10.591C10.7371 10.169 10.5 9.59674 10.5 9ZM0 3.375C0 2.47989 0.355579 1.62145 0.988515 0.988515C1.62145 0.35558 2.47989 0 3.375 0H22.125C22.5682 0 23.0071 0.0872966 23.4166 0.256906C23.826 0.426516 24.1981 0.675117 24.5115 0.988515C24.8249 1.30191 25.0735 1.67397 25.2431 2.08344C25.4127 2.49292 25.5 2.93179 25.5 3.375V10.5H23.25V6.75H22.125C21.2299 6.75 20.3715 6.39442 19.7385 5.76149C19.1056 5.12855 18.75 4.27011 18.75 3.375V2.25H6.75V3.375C6.75 4.27011 6.39442 5.12855 5.76149 5.76149C5.12855 6.39442 4.27011 6.75 3.375 6.75H2.25V11.25H3.375C4.27011 11.25 5.12855 11.6056 5.76149 12.2385C6.39442 12.8715 6.75 13.7299 6.75 14.625V15.75H18V18H3.375C2.47989 18 1.62145 17.6444 0.988515 17.0115C0.355579 16.3785 0 15.5201 0 14.625V3.375ZM3.375 2.25C3.07663 2.25 2.79048 2.36853 2.5795 2.5795C2.36853 2.79048 2.25 3.07663 2.25 3.375V4.5H3.375C3.67337 4.5 3.95952 4.38147 4.1705 4.1705C4.38147 3.95952 4.5 3.67337 4.5 3.375V2.25H3.375ZM23.25 4.5V3.375C23.25 3.07663 23.1315 2.79048 22.9205 2.5795C22.7095 2.36853 22.4234 2.25 22.125 2.25H21V3.375C21 3.996 21.504 4.5 22.125 4.5H23.25ZM2.25 14.625C2.25 15.246 2.754 15.75 3.375 15.75H4.5V14.625C4.5 14.3266 4.38147 14.0405 4.1705 13.8295C3.95952 13.6185 3.67337 13.5 3.375 13.5H2.25V14.625ZM3.6015 20.25H18V22.5H7.5C6.70985 22.5002 5.93357 22.2924 5.24921 21.8975C4.56486 21.5025 3.99657 20.9343 3.6015 20.25ZM30 10.5V7.5C30.0002 6.70985 29.7924 5.93357 29.3975 5.24921C29.0025 4.56486 28.4343 3.99657 27.75 3.6015V10.5H30ZM21.75 12C21.1533 12 20.581 12.2371 20.159 12.659C19.7371 13.081 19.5 13.6533 19.5 14.25V26.25C19.5 26.8467 19.7371 27.419 20.159 27.841C20.581 28.2629 21.1533 28.5 21.75 28.5H29.25C29.8467 28.5 30.419 28.2629 30.841 27.841C31.2629 27.419 31.5 26.8467 31.5 26.25V14.25C31.5 13.6533 31.2629 13.081 30.841 12.659C30.419 12.2371 29.8467 12 29.25 12H21.75ZM22.5 18.75H24C24.1989 18.75 24.3897 18.829 24.5303 18.9697C24.671 19.1103 24.75 19.3011 24.75 19.5C24.75 19.6989 24.671 19.8897 24.5303 20.0303C24.3897 20.171 24.1989 20.25 24 20.25H22.5C22.3011 20.25 22.1103 20.171 21.9697 20.0303C21.829 19.8897 21.75 19.6989 21.75 19.5C21.75 19.3011 21.829 19.1103 21.9697 18.9697C22.1103 18.829 22.3011 18.75 22.5 18.75ZM27 18.75H28.5C28.6989 18.75 28.8897 18.829 29.0303 18.9697C29.171 19.1103 29.25 19.3011 29.25 19.5C29.25 19.6989 29.171 19.8897 29.0303 20.0303C28.8897 20.171 28.6989 20.25 28.5 20.25H27C26.8011 20.25 26.6103 20.171 26.4697 20.0303C26.329 19.8897 26.25 19.6989 26.25 19.5C26.25 19.3011 26.329 19.1103 26.4697 18.9697C26.6103 18.829 26.8011 18.75 27 18.75ZM22.5 21.75H24C24.1989 21.75 24.3897 21.829 24.5303 21.9697C24.671 22.1103 24.75 22.3011 24.75 22.5C24.75 22.6989 24.671 22.8897 24.5303 23.0303C24.3897 23.171 24.1989 23.25 24 23.25H22.5C22.3011 23.25 22.1103 23.171 21.9697 23.0303C21.829 22.8897 21.75 22.6989 21.75 22.5C21.75 22.3011 21.829 22.1103 21.9697 21.9697C22.1103 21.829 22.3011 21.75 22.5 21.75ZM27 21.75H28.5C28.6989 21.75 28.8897 21.829 29.0303 21.9697C29.171 22.1103 29.25 22.3011 29.25 22.5C29.25 22.6989 29.171 22.8897 29.0303 23.0303C28.8897 23.171 28.6989 23.25 28.5 23.25H27C26.8011 23.25 26.6103 23.171 26.4697 23.0303C26.329 22.8897 26.25 22.6989 26.25 22.5C26.25 22.3011 26.329 22.1103 26.4697 21.9697C26.6103 21.829 26.8011 21.75 27 21.75ZM22.5 24.75H24C24.1989 24.75 24.3897 24.829 24.5303 24.9697C24.671 25.1103 24.75 25.3011 24.75 25.5C24.75 25.6989 24.671 25.8897 24.5303 26.0303C24.3897 26.171 24.1989 26.25 24 26.25H22.5C22.3011 26.25 22.1103 26.171 21.9697 26.0303C21.829 25.8897 21.75 25.6989 21.75 25.5C21.75 25.3011 21.829 25.1103 21.9697 24.9697C22.1103 24.829 22.3011 24.75 22.5 24.75ZM27 24.75H28.5C28.6989 24.75 28.8897 24.829 29.0303 24.9697C29.171 25.1103 29.25 25.3011 29.25 25.5C29.25 25.6989 29.171 25.8897 29.0303 26.0303C28.8897 26.171 28.6989 26.25 28.5 26.25H27C26.8011 26.25 26.6103 26.171 26.4697 26.0303C26.329 25.8897 26.25 25.6989 26.25 25.5C26.25 25.3011 26.329 25.1103 26.4697 24.9697C26.6103 24.829 26.8011 24.75 27 24.75ZM21.75 15C21.75 14.8011 21.829 14.6103 21.9697 14.4697C22.1103 14.329 22.3011 14.25 22.5 14.25H28.5C28.6989 14.25 28.8897 14.329 29.0303 14.4697C29.171 14.6103 29.25 14.8011 29.25 15V16.5C29.25 16.6989 29.171 16.8897 29.0303 17.0303C28.8897 17.171 28.6989 17.25 28.5 17.25H22.5C22.3011 17.25 22.1103 17.171 21.9697 17.0303C21.829 16.8897 21.75 16.6989 21.75 16.5V15Z" fill="#005274"/>
</svg>
