<svg width="32" height="29" viewBox="0 0 32 29" fill="none" xmlns="http://www.w3.org/2000/svg">
<path d="M31.35 25.8L25.2 19.65C25.8 18.15 25.5 16.2 24.15 15C23.165 14.015 21.8605 13.589 20.5862 13.7219C19.8918 13.7944 19.7267 14.6266 20.2204 15.1204L22.05 16.95L19.95 19.05L17.9704 17.0704C17.4767 16.5766 16.6447 16.7418 16.5722 17.4363C16.4383 18.7195 16.8642 20.0547 17.85 21.15C19.2 22.5 21 22.8 22.5 22.2L28.65 28.35C28.8472 28.5472 29.1091 28.6147 29.3081 28.5528C29.5133 28.4888 29.6275 28.2725 29.7795 28.1205L31.05 26.85C31.5 26.4 31.5 25.95 31.35 25.8ZM12 12C15.3 12 18 9.3 18 6C18 2.7 15.3 0 12 0C8.7 0 6 2.7 6 6C6 9.3 8.7 12 12 12ZM12 3C13.65 3 15 4.35 15 6C15 7.65 13.65 9 12 9C10.35 9 9 7.65 9 6C9 4.35 10.35 3 12 3ZM14.6481 21.9684C15.1307 22.7696 14.6732 24 13.738 24H0.999999C0.447714 24 0 23.5523 0 23V19.5C0 15.45 7.95 13.5 12 13.5C12.3236 13.5 12.7031 13.5279 13.1143 13.5717C13.8838 13.6537 14.2906 14.6078 14.0212 15.3334C13.9676 15.4779 13.9167 15.626 13.8676 15.7777C13.7301 16.2025 13.3412 16.4981 12.8991 16.4356C12.6116 16.3949 12.3282 16.35 12 16.35C7.5 16.35 2.85 18.6 2.85 19.5V21.15H14.25C14.3586 21.4396 14.4934 21.7117 14.6481 21.9684Z" fill="#005274"/>
</svg>
